<svg width="47" height="48" fill="none" xmlns="http://www.w3.org/2000/svg"><g clip-path="url(#dot-black-logo_svg__a)" fill="#000"><path d="M7.512 25.636A3.784 3.784 0 0 0 8.52 22.92a3.784 3.784 0 0 0-1.007-2.713 3.476 3.476 0 0 0-2.639-1.06h-1.36v7.535h1.36a3.475 3.475 0 0 0 2.64-1.045ZM23.134 19.429a3.022 3.022 0 0 0-2.32.981 3.788 3.788 0 0 0 0 4.918 3.254 3.254 0 0 0 4.665 0 3.788 3.788 0 0 0 0-4.918 3.031 3.031 0 0 0-2.334-.981"></path><path d="M31.809 19.232v-4.59h12.663a23.744 23.744 0 0 0-43.859 0h4.72c2.479 0 4.472.764 5.981 2.293 1.51 1.529 2.264 3.52 2.264 5.973 0 2.45-.755 4.44-2.264 5.97-1.509 1.528-3.505 2.293-5.988 2.293H0a23.733 23.733 0 0 0 36.425 11.786V19.232H31.81Zm-2.936 9.485a7.659 7.659 0 0 1-5.717 2.39 7.654 7.654 0 0 1-5.713-2.39 8.08 8.08 0 0 1-2.323-5.854 8.082 8.082 0 0 1 2.323-5.857 7.653 7.653 0 0 1 5.713-2.39 7.658 7.658 0 0 1 5.717 2.39 8.096 8.096 0 0 1 2.323 5.857 8.095 8.095 0 0 1-2.323 5.854Z"></path><path d="M45.848 19.228H41.44V38.07a23.624 23.624 0 0 0 4.831-14.347c.001-1.508-.14-3.013-.423-4.494Z"></path></g><defs><clipPath id="dot-black-logo_svg__a"><path fill="#fff" d="M0 0h46.5v48H0z"></path></clipPath></defs></svg>