<?xml version="1.0" encoding="UTF-8"?>
<!-- Generator: Adobe Illustrator 22.0.1, SVG Export Plug-In . SVG Version: 6.00 Build 0)  -->
<svg xmlns="http://www.w3.org/2000/svg" xmlns:xlink="http://www.w3.org/1999/xlink" version="1.1" x="0px" y="0px" viewBox="0 0 4007 492.4" style="enable-background:new 0 0 4007 492.4;" xml:space="preserve">
<style type="text/css">
	.st0{fill:#033789;}
</style>
<g id="Layer_1">
	<g>
		<g>
			<path class="st0" d="M910.2,21.4l3,0.2c8.6,0.5,15.6,1.7,20.9,3.6c5.1,1.9,9.7,4.9,13.8,9.1c4.4,4.6,7.5,10.5,9.2,17.6     c1.7,7.4,2.6,19.2,2.6,35.1v131.6c0,23.8-0.3,39-0.9,45.4c-0.9,9.5-2.8,17.4-5.5,23.5c-2.7,6-7,11.7-12.8,16.8     c-9.5,8.5-21.6,15.2-36,20c-14.4,4.8-29.8,7.3-45.7,7.3c-16.2,0-29.8-2.7-40.4-8c-10.5-5.3-19.4-13.9-26.6-25.8     c-4.8-7.8-8-16.4-9.6-25.6c-1.6-9.4-2.4-25.1-2.4-46.4V92.4c0-18.8,0.8-32.2,2.4-39.8c1.5-7.2,4.7-13.3,9.5-18.3     c3.9-4.2,8.4-7.2,13.6-9.1c5.3-1.9,12.4-3.1,21-3.6l3-0.2V9.8H672.4v11.6l3,0.2c8.7,0.5,15.8,1.7,21.1,3.6     c5.1,1.9,9.6,4.9,13.5,9.1l0.1,0.1c4.6,4.6,7.7,10.5,9.3,17.5c1.7,7.4,2.5,19.2,2.5,35.1v142.9c0,18.4,0.5,30.8,1.4,37.9     c2.8,20.2,11.4,36.7,25.5,49c21.5,19.1,55.3,28.8,100.3,28.8c43.1,0,76.8-10.2,100.2-30.4c10.4-9,17.5-19.1,21.1-30     c3.5-10.7,5.2-27.4,5.2-49.6V86.9c0-15.7,0.9-27.5,2.6-34.9c1.7-7.2,4.8-13.1,9.2-17.7c4-4.2,8.7-7.2,13.8-9.1     c5.3-1.9,12.3-3.1,20.9-3.6l3-0.2V9.8H910.2V21.4z"></path>
			<path class="st0" d="M1329.7,49.4c7,0,12.9-2.3,17.5-6.8c4.6-4.5,7-10.3,7-17.1c0-6.7-2.4-12.4-7.1-17     c-4.7-4.6-10.5-6.9-17.4-6.9c-6.8,0-12.7,2.3-17.4,6.9c-4.7,4.6-7.1,10.3-7.1,17c0,6.8,2.4,12.6,7,17.1     C1316.8,47.1,1322.7,49.4,1329.7,49.4z"></path>
			<path class="st0" d="M1360,317.5c-3.2-2.9-5.2-6.4-6.4-10.7c-1.2-4.6-1.8-12.2-1.8-22.6l-0.2-17.8V127.1l-74.2,9.3v10.7l3,0.2     c6.6,0.4,11.6,1.5,15,3.3c3.2,1.7,6.1,4.5,8.5,8.4c2.4,3.6,4,8.5,4.7,14.4c0.8,6.3,1.2,17.6,1.2,33.5v57.9     c0,13.6-0.4,24.1-1,31.2c-0.7,6.9-1.8,12-3.4,15.3c-2.2,4.8-5.1,8.2-8.5,10.1c-3.7,2.1-10.1,3.7-19.1,4.9l-2.8,0.4v0.1l-2.5-0.5     c-11.1-2.1-18.7-5-22.7-8.9c-3.2-2.9-5.2-6.4-6.4-10.8c-1.2-4.6-1.8-12.3-1.8-22.6v-99.7c0-18-6.5-32.2-19.4-42     c-12.8-9.8-29.7-14.8-50.4-14.8c-25.2,0-47.5,8.5-66.3,25.2c-0.3-7.1-1.4-14.8-3.3-22.8l-0.7-2.8l-70.1,9.2v10.7l3,0.2     c6.6,0.4,11.6,1.5,15,3.3c3.2,1.7,6.1,4.5,8.5,8.4c2.4,3.6,4,8.5,4.7,14.4c0.8,6.3,1.2,17.6,1.2,33.5v57.9     c0,13.6-0.4,24.1-1,31.2c-0.7,6.9-1.8,12-3.4,15.3c-2.2,4.8-5.1,8.2-8.5,10.1c-3.7,2.1-10.1,3.7-19.1,4.9l-2.8,0.4v10.9h110.4     v-10.8l-2.6-0.5c-11.1-2.1-18.7-5-22.7-8.9c-3.2-2.9-5.2-6.4-6.4-10.8c-1.2-4.6-1.8-12.3-1.8-22.7l-0.2-17.4v-46.1     c0-18.1,0.7-31.1,2.2-38.8c1.4-7.4,4.3-14.1,8.7-20c4-5.5,9.7-9.9,16.7-13.1c7.1-3.2,15-4.9,23.2-4.9c7.6,0,14.7,1.4,21,4.3     c6.1,2.8,10.9,6.7,14.2,11.7c3,4.4,5.1,10.5,6.2,18c1.1,7.8,1.7,20.3,1.7,37.2v49.8c0,13.5-0.4,23.9-1,31.1     c-0.7,6.9-1.8,12-3.4,15.3c-2.2,4.8-5.1,8.3-8.5,10.2c-3.7,2.1-10.2,3.7-19.1,4.9l-2.8,0.4v10.9h110.3h0.1h110.3v-10.8l-2.6-0.5     C1371.6,324.2,1363.9,321.3,1360,317.5z"></path>
			<path class="st0" d="M1517.4,305.9c-5.4,7.3-10.3,12.4-14.6,15.1c-4.2,2.6-9.5,3.9-15.9,3.9c-5.2,0-10-1-14.4-3     c-4.3-2-7.9-4.7-10.6-8.3c-5.1-6.4-7.8-17.7-7.8-33.3V146.4h59.8v-15.3h-59.8V69.9h-14.3l-3,10c-2.8,8.9-5.7,16.2-8.8,21.7     c-3,5.5-7.1,11.1-12.1,16.7c-8.2,9-17.3,15.1-26.9,18.2l-2.2,0.7v9.3h25.2v139.5c0,14.1,0.7,23.6,2.2,29.2     c1.6,5.9,4.9,11,10,15.1c9,7.7,23.3,11.6,42.6,11.6c14.4,0,26.6-2.4,36.4-7.1c9.9-4.8,17.7-12.3,23.2-22.3l1.2-2.2l-8.1-7     L1517.4,305.9z"></path>
			<path class="st0" d="M1694.8,280.4c-3.9,11.5-8.5,20-13.8,25.1c-4.7,4.7-10.6,8.4-17.7,11c-7.2,2.7-14.9,4-22.9,4     c-10.9,0-21.4-2.4-31.4-7.2c-9.9-4.8-18.4-11.5-25.1-19.8c-6.6-8.3-11.9-18.9-15.8-31.4c-3.9-12.7-5.8-25.8-5.8-39.1     c0-2.9,0.2-7.5,0.7-13.5h138.2v-3.2c0-20.5-6-37.8-18-51.5c-7.7-8.8-17.2-15.6-28.2-20.3c-11-4.6-23.2-7-36.1-7     c-24.2,0-46,7.6-64.8,22.6c-25.9,20.6-39.1,49.4-39.1,85.6c0,26.5,6.9,49.1,20.7,67.4c9.9,13.1,22.1,22.9,36.3,29.2     c14.2,6.3,31.3,9.5,51,9.5c22.8,0,41.5-4.9,55.4-14.6c14-9.8,23.3-24.4,27.5-43.5l0.6-2.8l-10.7-3.6L1694.8,280.4z M1651.3,162.4     c4.1,7.4,6.8,18,8,31.5h-94.2c2.2-15.3,7.8-28.2,16.7-38.5c9.5-11,20.3-16.3,32.9-16.3c7.3,0,14.3,2.1,20.8,6.2     C1642,149.5,1647.3,155.2,1651.3,162.4z"></path>
			<path class="st0" d="M1936.8,313.2c-5.2-6.9-7.8-19-7.8-35.9V1.2l-78.6,10v11.6h3.2c12,0,20.6,3.4,25.7,10     c5.2,6.9,7.9,18.7,7.9,34.9v80.5c-9.4-7.1-17.9-12.2-25.2-15.3c-8.8-3.6-19.5-5.4-31.8-5.4c-25.3,0-47.4,7.9-65.8,23.4     c-11.6,10-20.7,22.7-27.2,37.8c-6.4,15-9.7,31.5-9.7,49.2c0,16.7,3,32.3,8.9,46.3c6,14.1,14.6,26.1,25.8,35.4     c17.4,14.7,38.7,22.2,63.2,22.2c12,0,23.5-1.7,34-5.1c9.1-2.9,18.7-7.5,28.8-13.6c0.3,6.9,1,13.6,2.3,19.9l0.6,3l74.4-11v-11.8     h-3.2C1950.2,323.2,1941.9,319.9,1936.8,313.2z M1884.3,184.1c1.8,10.7,2.8,27,2.8,48.5c0,20.6-0.9,36.5-2.8,47.4     c-1.8,10.6-5,19.6-9.4,26.7c-4.2,6.7-9.8,12.1-16.7,15.9c-6.8,3.8-14.1,5.7-21.7,5.7c-16.1,0-29.4-7.4-40.6-22.7     c-6.5-8.9-11.7-19.8-15.5-32.4c-3.8-12.6-5.7-25.6-5.7-38.8c0-13.4,2-26.6,6.1-39.3c4-12.6,9.6-23.6,16.7-32.7     c11.7-15,25-22.3,40.9-22.3c7,0,13.9,1.7,20.5,5.1c6.6,3.4,11.9,7.9,15.8,13.4C1879.3,165.2,1882.5,173.7,1884.3,184.1z"></path>
			<path class="st0" d="M2190.9,21.4l3,0.2c8.7,0.5,15.8,1.7,21.1,3.6c5.1,1.9,9.7,4.9,13.8,9.1c4.4,4.6,7.5,10.5,9.2,17.6     c1.7,7.4,2.6,19.2,2.6,35.1v72.4h-160.8V86.9c0-15.7,0.9-27.5,2.6-34.9c1.7-7.2,4.8-13.1,9.2-17.7c4-4.2,8.7-7.2,13.8-9.1     c5.3-1.9,12.3-3.1,20.9-3.6l3-0.2V9.8h-156.8v11.6l3,0.2c8.6,0.5,15.6,1.7,21,3.6c5.1,1.9,9.7,4.9,13.6,9.1l0.1,0.1     c4.6,4.6,7.7,10.5,9.3,17.5c1.7,7.4,2.5,19.2,2.5,35.1v173.5c0,15.9-0.8,27.7-2.5,35.1c-1.6,7.1-4.7,13-9.3,17.6     c-3.9,4-8.4,7.1-13.6,9c-5.2,2-12.3,3.2-21,3.7l-3,0.2v11.6h156.8v-11.6l-3-0.2c-8.7-0.5-15.8-1.7-21-3.7c-5.1-1.9-9.7-5-13.6-9     c-4.4-4.6-7.5-10.5-9.2-17.7c-1.7-7.5-2.6-19.3-2.6-34.9v-83.7h160.8v83.7c0,15.8-0.9,27.6-2.6,35.1c-1.7,7.1-4.8,13-9.2,17.5     c-4.1,4.1-8.7,7.1-13.8,9c-5.2,2-12.3,3.2-21,3.7l-3,0.2v11.6h156.8v-11.6l-3-0.2c-8.6-0.5-15.6-1.7-20.8-3.7     c-5.1-1.9-9.8-5-13.8-9c-4.5-4.7-7.6-10.8-9.2-17.9c-1.7-7.4-2.6-19.1-2.6-34.8V86.9c0-15.7,0.9-27.5,2.6-34.9     c1.7-7.2,4.8-13.1,9.2-17.7c4-4.2,8.7-7.2,13.8-9.1c5.3-1.9,12.3-3.1,20.9-3.6l3-0.2V9.8h-156.8V21.4z"></path>
			<path class="st0" d="M2542.5,280.4c-3.9,11.5-8.5,20-13.8,25.1c-4.7,4.7-10.6,8.4-17.7,11c-7.2,2.7-14.9,4-22.9,4     c-10.9,0-21.4-2.4-31.4-7.2c-9.9-4.8-18.4-11.5-25.1-19.8c-6.6-8.3-11.9-18.9-15.8-31.4c-3.9-12.7-5.8-25.8-5.8-39.1     c0-2.9,0.2-7.5,0.7-13.5h138.2v-3.2c0-20.5-6-37.8-18-51.5c-7.7-8.8-17.2-15.6-28.2-20.3c-11-4.6-23.2-7-36.1-7     c-24.2,0-46,7.6-64.8,22.6c-25.9,20.6-39.1,49.4-39.1,85.6c0,26.5,6.9,49.1,20.7,67.4c9.9,13.1,22.1,22.9,36.3,29.2     c14.2,6.3,31.3,9.5,51,9.5c22.8,0,41.5-4.9,55.4-14.6c14-9.8,23.3-24.4,27.5-43.5l0.6-2.8l-10.7-3.6L2542.5,280.4z M2498.9,162.4     c4.1,7.4,6.8,18,8,31.5h-94.2c2.2-15.3,7.8-28.2,16.7-38.5c9.5-11,20.3-16.3,32.9-16.3c7.3,0,14.3,2.1,20.8,6.2     C2489.7,149.5,2495,155.2,2498.9,162.4z"></path>
			<path class="st0" d="M2853.2,317.4c-3.2-2.9-5.3-6.4-6.4-10.8c-1.2-4.7-1.8-12.3-1.8-22.7l-0.2-17.8V0l-74.2,9.3v11l3,0.2     c6.6,0.4,11.7,1.5,15,3.2c3.2,1.6,6,4.4,8.4,8.3c2.4,3.6,4,8.6,4.7,14.6c0.8,6.4,1.2,17.7,1.2,33.5v184.5c0,13.6-0.4,24.2-1,31.3     c-0.7,6.9-1.8,12-3.4,15.3c-2.2,4.8-5.1,8.3-8.5,10.2c-3.4,1.9-9,3.4-16.7,4.6c2.3-3.2,4.2-6.9,5.6-11l0.8-2.5l-8.7-5.1l-1.7,2.3     c-4.4,6-7.2,8.5-8.9,9.5c-2.2,1.4-5.5,2.1-9.7,2.1c-8.7,0-13.9-4.5-16.2-14.3c-1.2-5.1-1.8-15-1.8-29.4v-87.1     c0-11.5-0.7-19.6-2-24.6c-2.7-10.1-9.7-18.3-20.6-24.5c-7.3-4-16.5-7.4-27.2-10c-10.7-2.6-21.2-3.9-31.2-3.9     c-8.8,0-17.9,0.9-27.1,2.8c-9.2,1.8-17.1,4.3-23.5,7.2c-12.5,6-18.8,13.8-18.8,23.1c0,6.2,2.1,11.4,6.4,15.6     c4.2,4.1,9.5,6.2,15.6,6.2c9.4,0,16.3-4.5,19.9-13l5.9-13.7c2.2-5.2,5.7-9.3,10.1-12.3c4.5-3,9.6-4.4,15.4-4.4     c4.8,0,9.6,1.1,14.1,3.2c4.5,2.1,8.2,5,11,8.6c6.4,7.9,9.6,20.7,9.6,38.3c0,8.2-0.9,14.6-2.6,19.1c-1.6,4.3-4.8,8.1-9.3,11.3     c-4.1,3.1-9.4,5.8-15.5,8c-6.4,2.3-16.5,5.2-30,8.6c-11.8,3-20.9,6.1-27.2,9c-6.4,3.1-12.2,7.2-17.2,12.3     c-8.9,9.4-13.3,21.1-13.3,34.9c0,15.1,5.5,27.2,16.4,36.1c10.7,8.8,25.2,13.2,43.2,13.2c14,0,26.5-3,37.1-8.9     c5.1-2.8,12.1-8.2,21.5-16.5c4.7,7.6,9.3,13,14,16.5c7.9,5.9,17.9,8.9,29.7,8.9c13.2,0,23.6-3.4,31.1-10.1v5.8h110.4v-10.8     l-2.6-0.5C2864.8,324.2,2857.2,321.3,2853.2,317.4z M2630.3,318c-5.2-6.1-7.8-14.1-7.8-23.6c0-11.3,3.5-21.3,10.3-29.8     c3.4-4.2,7.2-7.8,11.4-10.7c4.3-3,12.1-7.6,23.3-13.7c8.3-4.3,16.1-9.3,23.3-14.8v32.7c0,19.4-2.3,34.3-7,44.4     c-3.2,7.4-8,13.4-14.3,17.8c-6.2,4.4-12.9,6.6-19.9,6.6C2641.7,327,2635.4,324,2630.3,318z"></path>
			<path class="st0" d="M3222.8,317.4c-3.2-2.9-5.2-6.4-6.4-10.8c-1.2-4.6-1.8-12.3-1.8-22.7l-0.2-17.8v-68.7     c0-16.4-1.7-28.4-5.1-36.8c-3.5-8.5-9.9-15.8-19.1-21.6c-12.5-7.6-28.5-11.5-47.6-11.5c-15,0-28.6,3-40.4,8.8     c-6.2,2.9-11.6,6.4-16.1,10.4c-2.8,2.5-5.9,5.7-9.3,9.5V0l-74.2,9.3v11l3,0.2c6.6,0.4,11.7,1.5,15,3.2c3.2,1.6,6,4.4,8.4,8.3     c2.4,3.6,4,8.6,4.7,14.6c0.8,6.4,1.2,17.7,1.2,33.5v184.5c0,13.6-0.4,24.2-1,31.3c-0.7,6.9-1.8,12-3.4,15.3     c-2.2,4.8-5.1,8.3-8.5,10.2c-2.7,1.5-6.8,2.8-12.3,3.8c3.8-3.7,7-8,9.7-12.8l1.2-2.2l-8.1-7l-2,2.8c-5.4,7.3-10.3,12.4-14.6,15.1     c-4.2,2.6-9.5,3.9-15.9,3.9c-5.2,0-10-1-14.4-3c-4.3-2-7.9-4.7-10.6-8.3c-5.1-6.4-7.8-17.7-7.8-33.3V146.4h59.8v-15.3h-59.8V69.9     h-14.3l-3,10c-2.8,8.9-5.7,16.2-8.8,21.7c-3,5.5-7.1,11.1-12.1,16.7c-8.2,9-17.3,15.1-26.9,18.2l-2.2,0.7v9.3h25.2v139.5     c0,14.1,0.7,23.6,2.2,29.2c1.6,5.9,4.9,11,10,15.1c9,7.7,23.3,11.6,42.6,11.6c14.4,0,26.6-2.4,36.4-7.1c1.3-0.7,2.6-1.4,3.9-2.1     v5h110.3v-10.8l-2.6-0.5c-11.1-2.1-18.7-5-22.6-8.9c-3.2-2.9-5.2-6.4-6.3-10.8c-1.2-4.7-1.8-12.3-1.8-22.7l-0.2-17.4V229     c0-58.3,17.6-86.6,53.7-86.6c13.7,0,24,4.2,31.4,12.7c3.8,4.5,6.5,9.8,8.1,15.9c1.6,6.3,2.5,15,2.5,26v74.5     c0,12.9-0.5,22.8-1.6,29.4c-1,6.2-2.8,11.1-5.3,14.6c-2.5,3.3-5.3,5.7-8.3,7c-3.2,1.4-8.9,2.7-16.9,3.7l-2.8,0.4v10.9h110.3     v-10.8l-2.6-0.5C3234.4,324.2,3226.8,321.3,3222.8,317.4z"></path>
			<path class="st0" d="M3424.3,288.7c-4.4,10.8-9,18.7-13.6,23.4c-9.2,8.9-21,13.5-35.2,13.5c-17.2,0-32.4-6.8-45.2-20.2     c-8.3-8.6-14.9-19.5-19.8-32.3c-4.9-12.9-7.3-26.3-7.3-39.8c0-14.8,2.7-30.1,8-45.6c3.5-10,7.6-18.4,12.2-25     c4.5-6.5,10.1-11.9,16.6-16.2c7.3-4.8,15.3-7.2,23.8-7.2c6.3,0,11.7,1.6,15.9,4.8c2.1,1.6,3.7,3.5,4.9,5.5     c1.2,2.3,2.9,6.9,5.1,13.6c5.3,16.3,13.9,24.6,25.6,24.6c5.6,0,10.4-2,14.3-6c3.9-4,5.8-9,5.8-14.8c0-8.5-4.4-16.3-13-23.2     c-13.4-10.6-32-16-55.4-16c-16.8,0-32.6,3-46.8,9c-14.3,6-26.5,14.7-36.4,26c-8.7,9.8-15.6,21.8-20.6,35.6     c-5,13.8-7.5,27.9-7.5,42c0,29,9.2,53.3,27.3,72.4c18.6,19.4,44.5,29.2,76.9,29.2c20.3,0,36.6-3.9,48.4-11.6     c11.9-7.7,20.8-20.4,26.5-37.7l1-3l-10.5-3.7L3424.3,288.7z"></path>
			<path class="st0" d="M3804.2,135.1c-5.9-5-14.4-7.6-25.4-7.6c-17.2,0-32.8,4.9-46.3,14.5c-5.2,3.7-10,8.6-14.5,14.7     c-0.6-7.9-1.8-16.9-3.7-26.6l-0.6-3l-66.4,9.3v10.7l3,0.2c6.6,0.4,11.6,1.5,15,3.3c3.2,1.7,6,4.5,8.5,8.4c2.4,3.6,4,8.5,4.7,14.4     c0.8,6.3,1.2,17.6,1.2,33.5v57.9c0,13.6-0.4,24.1-1,31.2c-0.7,6.9-1.8,12-3.4,15.3c-2.2,4.8-5.1,8.2-8.5,10.1     c-3.4,1.9-9,3.4-16.7,4.6c2.3-3.2,4.2-6.9,5.6-11l0.8-2.5l-8.7-5.1l-1.7,2.3c-4.4,6-7.2,8.5-8.9,9.5c-2.2,1.4-5.5,2.1-9.7,2.1     c-8.7,0-13.9-4.5-16.2-14.3c-1.2-5.1-1.8-15-1.8-29.4v-87.1c0-11.5-0.7-19.6-2-24.6c-2.7-10.1-9.7-18.3-20.6-24.5     c-7.3-4-16.5-7.4-27.2-10c-10.7-2.6-21.2-3.9-31.2-3.9c-8.8,0-17.9,0.9-27.1,2.8c-9.2,1.8-17.1,4.3-23.5,7.2     c-12.5,6-18.8,13.8-18.8,23.1c0,6.2,2.1,11.4,6.4,15.6c4.2,4.1,9.5,6.2,15.6,6.2c9.4,0,16.3-4.5,19.9-13l5.9-13.7     c2.2-5.2,5.7-9.3,10.1-12.3c4.5-2.9,9.7-4.4,15.4-4.4c4.8,0,9.6,1.1,14.1,3.2c4.5,2.1,8.2,5,11,8.6c6.4,7.9,9.6,20.7,9.6,38.3     c0,8.2-0.9,14.6-2.6,19.1c-1.6,4.3-4.8,8.1-9.3,11.3c-4.1,3.1-9.3,5.8-15.5,8c-6.4,2.3-16.5,5.2-30,8.6c-11.8,3-20.9,6.1-27.2,9     c-6.4,3.1-12.2,7.2-17.2,12.3c-8.9,9.4-13.3,21.1-13.3,34.9c0,15.1,5.5,27.2,16.4,36.1c10.7,8.8,25.2,13.2,43.2,13.2     c14,0,26.5-3,37.1-8.9c5.1-2.8,12.1-8.2,21.5-16.5c4.7,7.6,9.3,13,14,16.5c7.9,5.9,17.9,8.9,29.7,8.9c13.2,0,23.6-3.4,31.1-10.1     v5.8h110.4v-10.8l-2.6-0.5c-11.1-2.1-18.7-5-22.7-8.9c-3.2-2.9-5.2-6.4-6.4-10.8c-1.2-4.6-1.8-12.3-1.8-22.7l-0.2-17.8v-44     c0-24.1,2.9-43,8.7-56.3c5.5-12.6,12.7-18.8,22-18.8c7,0,12.9,2.7,18.1,8.1l7.3,8c4.5,5.1,10,7.6,16.3,7.6     c5.4,0,9.9-1.7,13.4-5.1c3.5-3.4,5.3-7.8,5.3-13.1C3812.6,145.7,3809.7,139.8,3804.2,135.1z M3506.9,318     c-5.2-6.1-7.8-14.1-7.8-23.6c0-11.3,3.5-21.3,10.3-29.8c3.4-4.2,7.2-7.8,11.4-10.7c4.3-3,12.1-7.6,23.3-13.7     c8.3-4.3,16.1-9.3,23.3-14.8v32.7c0,19.4-2.4,34.3-7,44.4c-3.2,7.4-8,13.4-14.3,17.8c-6.2,4.4-12.9,6.6-19.9,6.6     C3518.3,327,3512,324,3506.9,318z"></path>
			<path class="st0" d="M3996.3,277.4l-1,3c-3.9,11.5-8.5,20-13.8,25.1c-4.7,4.7-10.6,8.4-17.7,11c-7.2,2.7-14.9,4-22.9,4     c-10.9,0-21.4-2.4-31.4-7.2c-9.9-4.8-18.4-11.5-25.1-19.8c-6.6-8.3-11.9-18.9-15.8-31.4c-3.9-12.7-5.8-25.8-5.8-39.1     c0-2.9,0.2-7.5,0.7-13.5h138.2v-3.2c0-20.5-6-37.8-18-51.5c-7.7-8.8-17.2-15.6-28.2-20.3c-11-4.6-23.2-7-36.1-7     c-24.2,0-46,7.6-64.8,22.6c-25.9,20.6-39.1,49.4-39.1,85.6c0,26.5,6.9,49.1,20.7,67.4c9.9,13.1,22.1,22.9,36.3,29.2     c14.2,6.3,31.3,9.5,51,9.5c22.8,0,41.5-4.9,55.4-14.6c14-9.8,23.3-24.4,27.5-43.5l0.6-2.8L3996.3,277.4z M3951.8,162.4     c4.1,7.4,6.8,18,8,31.5h-94.2c2.2-15.3,7.8-28.2,16.7-38.5c9.5-11,20.3-16.3,32.9-16.3c7.3,0,14.3,2.1,20.8,6.2     C3942.5,149.5,3947.9,155.2,3951.8,162.4z"></path>
		</g>
		<g>
			<path class="st0" d="M3175.5,8.9h11.8v66.6h-11.8V8.9z"></path>
			<path class="st0" d="M3214.4,8.9h12.1l20.7,37.4l6.9,14.2h0.4c-0.6-6.9-1.5-15.3-1.5-22.7V8.9h11.2v66.6h-12.1L3231.4,38     l-6.9-14.2h-0.4c0.6,7,1.5,15.1,1.5,22.5v29.2h-11.2V8.9z"></path>
			<path class="st0" d="M3304.8,18.9h-19.2V8.9h50.3v9.9h-19.2v56.7h-11.8V18.9z"></path>
			<path class="st0" d="M3357.2,8.9h40.1v9.9H3369v17.1h24v9.9h-24v19.7h29.3v9.9h-41.1V8.9z"></path>
			<path class="st0" d="M3422.2,8.9h22.4c13.8,0,24.5,4.9,24.5,19.8c0,14.3-10.7,20.8-24.5,20.8H3434v26h-11.8V8.9z M3443.4,40.1     c9.1,0,14.1-3.8,14.1-11.4c0-7.7-5-10.3-14.1-10.3h-9.4v21.7H3443.4z M3442.4,46.3l8.6-7l20.8,36.2h-13.3L3442.4,46.3z"></path>
			<path class="st0" d="M3492.6,8.9h12.1l20.7,37.4l6.9,14.2h0.4c-0.6-6.9-1.5-15.3-1.5-22.7V8.9h11.2v66.6h-12.1L3509.6,38     l-6.9-14.2h-0.4c0.6,7,1.5,15.1,1.5,22.5v29.2h-11.2V8.9z"></path>
			<path class="st0" d="M3582.6,8.9h13.9l21.7,66.6h-12.5l-10.1-35.4c-2.1-7-4.1-14.6-6-22h-0.4c-1.8,7.4-3.8,14.9-5.9,22L3573,75.5     h-12.1L3582.6,8.9z M3573.7,48.2h31.4v9.3h-31.4V48.2z"></path>
			<path class="st0" d="M3643.6,18.9h-19.2V8.9h50.3v9.9h-19.2v56.7h-11.8V18.9z"></path>
			<path class="st0" d="M3695.9,8.9h11.8v66.6h-11.8V8.9z"></path>
			<path class="st0" d="M3731.4,42c0-21.5,12-34.3,29.4-34.3c17.4,0,29.4,12.8,29.4,34.3c0,21.5-12,34.8-29.4,34.8     C3743.4,76.8,3731.4,63.5,3731.4,42z M3778,42c0-14.9-6.8-24-17.2-24s-17.2,9-17.2,24s6.8,24.5,17.2,24.5S3778,56.9,3778,42z"></path>
			<path class="st0" d="M3813.7,8.9h12.1l20.7,37.4l6.9,14.2h0.4c-0.6-6.9-1.5-15.3-1.5-22.7V8.9h11.2v66.6h-12.1L3830.8,38     l-6.9-14.2h-0.4c0.6,7,1.5,15.1,1.5,22.5v29.2h-11.2V8.9z"></path>
			<path class="st0" d="M3903.8,8.9h13.9l21.7,66.6h-12.5l-10.1-35.4c-2.1-7-4.1-14.6-6-22h-0.4c-1.8,7.4-3.8,14.9-5.9,22     l-10.2,35.4h-12.1L3903.8,8.9z M3894.9,48.2h31.4v9.3h-31.4V48.2z"></path>
			<path class="st0" d="M3957.2,8.9h11.8v56.7h27.7v9.9h-39.5V8.9z"></path>
		</g>
		<g>
			<g>
				<path class="st0" d="M712,408.6h24.5c15.1,0,26.8,5.3,26.8,21.6c0,15.6-11.7,22.7-26.8,22.7h-11.6v28.4H712V408.6z M735.1,442.5      c10,0,15.4-4.1,15.4-12.4c0-8.4-5.4-11.3-15.4-11.3h-10.3v23.7H735.1z M734,449.4l9.3-7.7l22.7,39.6h-14.5L734,449.4z"></path>
				<path class="st0" d="M785,445.2c0-23.8,14.9-37.9,33.3-37.9c9.1,0,16.4,4.4,21,9.2l-6.9,8.3c-3.7-3.7-8.1-6.3-13.8-6.3      c-11.8,0-20.3,10-20.3,26.3c0,16.6,7.8,26.6,20,26.6c6.5,0,11.4-3,15.5-7.5l6.9,8.1c-5.9,6.9-13.5,10.6-22.9,10.6      C799.5,482.6,785,469.2,785,445.2z"></path>
				<path class="st0" d="M861.9,436c0-5,3.6-8.7,8.3-8.7c4.7,0,8.3,3.7,8.3,8.7c0,4.9-3.6,8.6-8.3,8.6      C865.5,444.6,861.9,440.9,861.9,436z M861.9,474c0-5,3.6-8.7,8.3-8.7c4.7,0,8.3,3.7,8.3,8.7c0,4.9-3.6,8.6-8.3,8.6      C865.5,482.6,861.9,478.9,861.9,474z"></path>
				<path class="st0" d="M899.2,472.6l6.1-8.2c4.3,4.3,9.7,7.7,16.8,7.7c7.7,0,13.1-4,13.1-10.7c0-7.3-4.7-12-20.8-12v-9.3      c13.8,0,18.4-4.8,18.4-11.3c0-5.9-3.9-9.5-10.5-9.5c-5.5,0-9.9,2.6-14.1,6.7l-6.6-7.9c6-5.3,12.8-8.9,21.3-8.9      c13.5,0,22.8,6.8,22.8,18.7c0,7.9-4.7,13.2-12.3,16.3v0.4c8.4,2.2,14.7,8.2,14.7,17.6c0,12.9-11.3,20.4-24.9,20.4      C911.8,482.6,904.2,478.2,899.2,472.6z"></path>
				<path class="st0" d="M1003.1,421.4h-33.5v-10.9h47.5v7.9c-16.6,20.6-19.4,35.3-20.7,62.9h-13      C984.6,456.2,989.4,440.3,1003.1,421.4z"></path>
				<path class="st0" d="M1035.5,472.6l6.1-8.2c4.3,4.3,9.7,7.7,16.8,7.7c7.7,0,13.1-4,13.1-10.7c0-7.3-4.7-12-20.8-12v-9.3      c13.8,0,18.4-4.8,18.4-11.3c0-5.9-3.9-9.5-10.5-9.5c-5.5,0-9.9,2.6-14.1,6.7l-6.6-7.9c6-5.3,12.8-8.9,21.3-8.9      c13.5,0,22.8,6.8,22.8,18.7c0,7.9-4.7,13.2-12.3,16.3v0.4c8.4,2.2,14.7,8.2,14.7,17.6c0,12.9-11.3,20.4-24.9,20.4      C1048.1,482.6,1040.5,478.2,1035.5,472.6z"></path>
				<path class="st0" d="M1139.4,421.4h-33.5v-10.9h47.5v7.9c-16.6,20.6-19.4,35.3-20.7,62.9h-13      C1120.9,456.2,1125.7,440.3,1139.4,421.4z"></path>
				<path class="st0" d="M1177.4,470.8h15.8v-46.4h-13.1v-8.1c7-1.3,11.9-3.1,16.3-5.8h9.6v60.3h13.9v10.5h-42.6V470.8z"></path>
				<path class="st0" d="M1240,472.6l6.1-8.2c4.3,4.3,9.7,7.7,16.8,7.7c7.7,0,13.1-4,13.1-10.7c0-7.3-4.7-12-20.8-12v-9.3      c13.8,0,18.4-4.8,18.4-11.3c0-5.9-3.9-9.5-10.5-9.5c-5.5,0-9.9,2.6-14.1,6.7l-6.6-7.9c6-5.3,12.8-8.9,21.3-8.9      c13.5,0,22.8,6.8,22.8,18.7c0,7.9-4.7,13.2-12.3,16.3v0.4c8.4,2.2,14.7,8.2,14.7,17.6c0,12.9-11.3,20.4-24.9,20.4      C1252.5,482.6,1245,478.2,1240,472.6z"></path>
			</g>
		</g>
		<path class="st0" d="M554,131.4v51c0,0-161,4.3-277,160h0C161,186.7,0,182.4,0,182.4l0,0v-50.6h0c0,0,161,3.6,277,133.6h0    c116-130,277-133.6,277-133.6 M0,58.4c0,0,161,3.1,277,113.5h0C393,61.5,554,58.4,554,58.4c0,0,0-55,0-55c0,0-161,2.8-277,103.1h0    C161,6.2,0,3.4,0,3.4l0,0L0,58.4 M0,253.5v92c0,81.2,65.8,147,147,147h260c81.2,0,147-65.8,147-147v-92c0,0-161,4.7-277,174.5h0    C161,258.1,0,253.4,0,253.5"></path>
	</g>
</g>
<g id="Layer_2">
</g>
</svg>
